<?xml version="1.0" encoding="iso-8859-1"?>
<!-- Generator: Adobe Illustrator 16.0.0, SVG Export Plug-In . SVG Version: 6.00 Build 0)  -->
<!DOCTYPE svg PUBLIC "-//W3C//DTD SVG 1.1//EN" "http://www.w3.org/Graphics/SVG/1.1/DTD/svg11.dtd">
<svg version="1.1" id="Capa_1" xmlns="http://www.w3.org/2000/svg" xmlns:xlink="http://www.w3.org/1999/xlink" x="0px" y="0px"
	 width="29.604px" height="29.604px" viewBox="0 0 29.604 29.604" style="enable-background:new 0 0 29.604 29.604;"
	 xml:space="preserve">
<g>
	<g>
		<path d="M25.957,19.085H23.5c0.019-0.41-0.03-0.856-0.172-1.344c-0.511-2.418-2.294-5.283-2.294-5.283
			c0.111-0.817,0.257-2.057,0.312-3.338C21.442,6.936,21.768,0,15.477,0C9.185,0,9.358,5.791,9.358,5.791l0.459,7.515
			c0,0-1.051,1.778-1.669,3.633c-0.286,0.735-0.256,1.461-0.041,2.146H3.646L1.157,29.604h27.29L25.957,19.085z M11.157,16.381
			c0.295-0.316,0.542-0.525,0.542-0.525c0.059,0.199,0.117,0.395,0.174,0.59L11.157,16.381z M18.988,16.455
			c0.06-0.362,0.124-0.74,0.19-1.129c0,0,0.615,0.391,1.215,1.009L18.988,16.455z M9.766,17.479h11.401l-1.068,5.74h-9.263
			L9.766,17.479z M10.644,5.071c1.387-0.097,6.063-0.527,6.184-2.047c0.448,0.824,2.81,2.896,3.765,3.053
			c-0.215,2.086-1.697,3.782-3.672,4.315v1.768h0.01l0.634,0.303l-1.992,3.587l-1.95-3.699l0.498-0.124v-1.892
			c-2.037-0.641-3.525-2.52-3.525-4.769C10.594,5.396,10.627,5.236,10.644,5.071z M4.411,20.053h4.131
			c0.368,0.637,0.86,1.209,1.35,1.696l0.011-0.011l0.396,2.126h10.336l0.289-1.55l0.182,0.119c0.844-0.472,1.81-1.235,2.21-2.382
			h1.876l2.031,8.584H2.38L4.411,20.053z"/>
		<circle cx="15.268" cy="20.356" r="0.665"/>
	</g>
</g>
<g>
</g>
<g>
</g>
<g>
</g>
<g>
</g>
<g>
</g>
<g>
</g>
<g>
</g>
<g>
</g>
<g>
</g>
<g>
</g>
<g>
</g>
<g>
</g>
<g>
</g>
<g>
</g>
<g>
</g>
</svg>
